# xmcd
#
# Track frame offsets:
#	182
#	20980
#	37437
#	57377
#
# Disc length: 1311 seconds
#
# Revision: 1
# Processed by: cddbd v1.5PL3 Copyright (c) Steve Scherf et al.
# Submitted via: EasyCDDAExtractor 5.1.0
#
DISCID=3c051d04
DTITLE=Tété
DYEAR=1999
DGENRE=Chanson
TTITLE0=Les Envies
TTITLE1=Le meilleur des mondes
TTITLE2=Mon chagrin
TTITLE3=Dodeline
EXTD=
EXTT0=
EXTT1=
EXTT2=
EXTT3=
PLAYORDER=
